<svg width="26" height="19" viewBox="0 0 26 19" fill="none" xmlns="http://www.w3.org/2000/svg">
<path d="M25.103 15.3408C25.103 16.0805 24.8092 16.79 24.2861 17.3131C23.763 17.8361 23.0536 18.13 22.3138 18.13H16.7354V0H22.3138C23.0536 0 23.763 0.293864 24.2861 0.816947C24.8092 1.34003 25.103 2.04948 25.103 2.78923V15.3408Z" fill="#CE2B37"/>
<path d="M2.78923 0C2.04948 0 1.34003 0.293864 0.816947 0.816947C0.293865 1.34003 0 2.04948 0 2.78923L0 15.3408C0 16.0805 0.293865 16.79 0.816947 17.3131C1.34003 17.8361 2.04948 18.13 2.78923 18.13H8.36769V0H2.78923Z" fill="#009246"/>
<path d="M8.36768 0H16.7354V18.13H8.36768V0Z" fill="#EEEEEE"/>
</svg>
