<svg width="27" height="19" viewBox="0 0 27 19" fill="none" xmlns="http://www.w3.org/2000/svg">
<path fill-rule="evenodd" clip-rule="evenodd" d="M0 4.41071C0 1.97516 1.9629 0 4.38646 0H22.6136C25.0371 0 27 1.97516 27 4.41071V14.5893C27 17.0252 25.0356 19 22.6125 19H4.3875C1.96434 19 0 17.0252 0 14.5893V4.41071ZM4.38646 2.03571C3.08209 2.03571 2.025 3.09863 2.025 4.41071V14.5893C2.025 15.901 3.08273 16.9643 4.3875 16.9643H22.6125C23.9173 16.9643 24.975 15.901 24.975 14.5893V4.41071C24.975 3.09863 23.9179 2.03571 22.6136 2.03571H4.38646ZM5.77827 7.08361C5.38278 6.68626 4.7417 6.68641 4.34638 7.08402C3.95108 7.48166 3.95122 8.12603 4.34672 8.52354L5.31834 9.49973L4.34656 10.4767C3.95116 10.8742 3.95116 11.5186 4.34656 11.9161C4.74196 12.3136 5.38305 12.3136 5.77845 11.9161L6.75057 10.9388L7.72173 11.9148C8.11723 12.3121 8.7583 12.312 9.15362 11.9144C9.54893 11.5169 9.54878 10.8723 9.15327 10.475L8.18246 9.49946L9.15345 8.52327C9.54885 8.12576 9.54885 7.48139 9.15345 7.08388C8.75803 6.68635 8.11696 6.68635 7.72156 7.08388L6.75023 8.06035L5.77827 7.08361ZM11.7713 7.08402C12.1667 6.68641 12.8077 6.68626 13.2033 7.08361L14.1753 8.06035L15.1466 7.08388C15.542 6.68635 16.183 6.68635 16.5784 7.08388C16.9738 7.48139 16.9738 8.12576 16.5784 8.52327L15.6075 9.49946L16.5783 10.475C16.9738 10.8723 16.974 11.5169 16.5787 11.9144C16.1833 12.312 15.5423 12.3121 15.1467 11.9148L14.1755 10.9388L13.2034 11.9161C12.808 12.3136 12.167 12.3136 11.7716 11.9161C11.3762 11.5186 11.3762 10.8742 11.7716 10.4767L12.7433 9.49973L11.7717 8.52354C11.3762 8.12603 11.376 7.48166 11.7713 7.08402ZM19.575 11.5357C19.0158 11.5357 18.5625 11.9914 18.5625 12.5536C18.5625 13.1157 19.0158 13.5714 19.575 13.5714H21.9375C22.4967 13.5714 22.95 13.1157 22.95 12.5536C22.95 11.9914 22.4967 11.5357 21.9375 11.5357H19.575Z" fill="white"/>
</svg>
