<svg width="40" height="40" viewBox="0 0 40 40" fill="none" xmlns="http://www.w3.org/2000/svg">
<rect width="40" height="40" rx="20" fill="#FE8309"/>
<path d="M11 29V24H15L19 20V16.8C18.4 16.5833 17.9167 16.2208 17.55 15.7125C17.1833 15.2042 17 14.6333 17 14C17 13.1667 17.2917 12.4583 17.875 11.875C18.4583 11.2917 19.1667 11 20 11C20.8333 11 21.5417 11.2917 22.125 11.875C22.7083 12.4583 23 13.1667 23 14C23 14.6333 22.8167 15.2042 22.45 15.7125C22.0833 16.2208 21.6 16.5833 21 16.8V20L25 24H29V29H24V25.95L20 21.95L16 25.95V29H11Z" fill="white"/>
</svg>
